{
  "accessors": [
    {
      "bufferView": 2,
      "componentType": 5126,
      "count": 65532,
      "max": [
        7.373231887817383,
        1.1325440406799316,
        -5.330728054046631
      ],
      "min": [
        1.1487380266189575,
        -0.4648579955101013,
        -10.638421058654785
      ],
      "type": "VEC3"
    },
    {
      "bufferView": 2,
      "byteOffset": 786384,
      "componentType": 5126,
      "count": 65532,
      "max": [
        0.9998445510864258,
        0.9999194145202637,
        0.9999972581863403
      ],
      "min": [
        -0.9999632239341736,
        -0.9999997615814209,
        -0.9999030232429504
      ],
      "type": "VEC3"
    },
    {
      "bufferView": 1,
      "componentType": 5126,
      "count": 65532,
      "max": [
        0.9889379739761353,
        0.9981529712677002
      ],
      "min": [
        0.010499999858438969,
        2.099999983329326e-05
      ],
      "type": "VEC2"
    },
    {
      "bufferView": 0,
      "componentType": 5125,
      "count": 362673,
      "type": "SCALAR"
    },
    {
      "bufferView": 2,
      "byteOffset": 1572768,
      "componentType": 5126,
      "count": 65532,
      "max": [
        4.999983787536621,
        1.1581920385360718,
        -4.091033935546875
      ],
      "min": [
        1.7039459943771362,
        -0.7933070063591003,
        -10.875502586364746
      ],
      "type": "VEC3"
    },
    {
      "bufferView": 2,
      "byteOffset": 2359152,
      "componentType": 5126,
      "count": 65532,
      "max": [
        0.9999537467956543,
        0.9999634027481079,
        0.9999509453773499
      ],
      "min": [
        -0.9999653697013855,
        -0.9999997019767761,
        -0.9999997019767761
      ],
      "type": "VEC3"
    },
    {
      "bufferView": 1,
      "byteOffset": 524256,
      "componentType": 5126,
      "count": 65532,
      "max": [
        0.9990940093994141,
        0.9989669919013977
      ],
      "min": [
        0.013399999588727951,
        4.5000000682193786e-05
      ],
      "type": "VEC2"
    },
    {
      "bufferView": 0,
      "byteOffset": 1450692,
      "componentType": 5125,
      "count": 357804,
      "type": "SCALAR"
    },
    {
      "bufferView": 2,
      "byteOffset": 3145536,
      "componentType": 5126,
      "count": 65532,
      "max": [
        6.655213832855225,
        1.074260950088501,
        -4.65895414352417
      ],
      "min": [
        2.2816200256347656,
        -0.9955809712409973,
        -10.741317749023438
      ],
      "type": "VEC3"
    },
    {
      "bufferView": 2,
      "byteOffset": 3931920,
      "componentType": 5126,
      "count": 65532,
      "max": [
        0.9999427199363708,
        0.9999860525131226,
        0.9999821186065674
      ],
      "min": [
        -0.9999658465385437,
        -0.9999998807907104,
        -0.9999824166297913
      ],
      "type": "VEC3"
    },
    {
      "bufferView": 1,
      "byteOffset": 1048512,
      "componentType": 5126,
      "count": 65532,
      "max": [
        0.9999880194664001,
        0.9984800219535828
      ],
      "min": [
        0.008658000268042088,
        3.000000106112566e-06
      ],
      "type": "VEC2"
    },
    {
      "bufferView": 0,
      "byteOffset": 2881908,
      "componentType": 5125,
      "count": 354117,
      "type": "SCALAR"
    },
    {
      "bufferView": 2,
      "byteOffset": 4718304,
      "componentType": 5126,
      "count": 65532,
      "max": [
        7.53328800201416,
        1.053678035736084,
        -5.896515846252441
      ],
      "min": [
        2.128704071044922,
        -0.6878690123558044,
        -10.280144691467285
      ],
      "type": "VEC3"
    },
    {
      "bufferView": 2,
      "byteOffset": 5504688,
      "componentType": 5126,
      "count": 65532,
      "max": [
        0.9999866485595703,
        1.0,
        0.9999815821647644
      ],
      "min": [
        -0.9999575018882751,
        -1.0,
        -0.9999963641166687
      ],
      "type": "VEC3"
    },
    {
      "bufferView": 1,
      "byteOffset": 1572768,
      "componentType": 5126,
      "count": 65532,
      "max": [
        0.9999759793281555,
        0.9956430196762085
      ],
      "min": [
        3.000000106112566e-06,
        0.00017800000205170363
      ],
      "type": "VEC2"
    },
    {
      "bufferView": 0,
      "byteOffset": 4298376,
      "componentType": 5125,
      "count": 352797,
      "type": "SCALAR"
    },
    {
      "bufferView": 2,
      "byteOffset": 6291072,
      "componentType": 5126,
      "count": 65532,
      "max": [
        7.533154010772705,
        1.0678819417953491,
        -4.101859092712402
      ],
      "min": [
        1.8263829946517944,
        -2.609736919403076,
        -10.974093437194824
      ],
      "type": "VEC3"
    },
    {
      "bufferView": 2,
      "byteOffset": 7077456,
      "componentType": 5126,
      "count": 65532,
      "max": [
        0.9999779462814331,
        0.9999986886978149,
        0.9998518228530884
      ],
      "min": [
        -0.9998946785926819,
        -0.9999995231628418,
        -0.9997492432594299
      ],
      "type": "VEC3"
    },
    {
      "bufferView": 1,
      "byteOffset": 2097024,
      "componentType": 5126,
      "count": 65532,
      "max": [
        0.9964330196380615,
        0.998986005783081
      ],
      "min": [
        7.000000096013537e-06,
        0.0008980000275187194
      ],
      "type": "VEC2"
    },
    {
      "bufferView": 0,
      "byteOffset": 5709564,
      "componentType": 5125,
      "count": 340119,
      "type": "SCALAR"
    },
    {
      "bufferView": 2,
      "byteOffset": 7863840,
      "componentType": 5126,
      "count": 65532,
      "max": [
        7.429498195648193,
        1.1175340414047241,
        -4.090487003326416
      ],
      "min": [
        0.3885209858417511,
        -2.41452693939209,
        -10.648858070373535
      ],
      "type": "VEC3"
    },
    {
      "bufferView": 2,
      "byteOffset": 8650224,
      "componentType": 5126,
      "count": 65532,
      "max": [
        0.9997838735580444,
        0.9999954700469971,
        0.9999821186065674
      ],
      "min": [
        -0.9999653697013855,
        -1.0,
        -0.9999685287475586
      ],
      "type": "VEC3"
    },
    {
      "bufferView": 1,
      "byteOffset": 2621280,
      "componentType": 5126,
      "count": 65532,
      "max": [
        0.9997090101242065,
        0.998108983039856
      ],
      "min": [
        0.002744999947026372,
        0.0045369998551905155
      ],
      "type": "VEC2"
    },
    {
      "bufferView": 0,
      "byteOffset": 7070040,
      "componentType": 5125,
      "count": 345792,
      "type": "SCALAR"
    },
    {
      "bufferView": 2,
      "byteOffset": 9436608,
      "componentType": 5126,
      "count": 65532,
      "max": [
        5.755967140197754,
        1.1581920385360718,
        -5.46052885055542
      ],
      "min": [
        0.3441689908504486,
        0.171206995844841,
        -11.481278419494629
      ],
      "type": "VEC3"
    },
    {
      "bufferView": 2,
      "byteOffset": 10222992,
      "componentType": 5126,
      "count": 65532,
      "max": [
        0.9958471655845642,
        0.9998498558998108,
        0.9997685551643372
      ],
      "min": [
        -0.999962329864502,
        -0.9999998807907104,
        -0.9992916584014893
      ],
      "type": "VEC3"
    },
    {
      "bufferView": 1,
      "byteOffset": 3145536,
      "componentType": 5126,
      "count": 65532,
      "max": [
        0.9819759726524353,
        0.9947839975357056
      ],
      "min": [
        0.05473700165748596,
        0.021391000598669052
      ],
      "type": "VEC2"
    },
    {
      "bufferView": 0,
      "byteOffset": 8453208,
      "componentType": 5125,
      "count": 361161,
      "type": "SCALAR"
    },
    {
      "bufferView": 2,
      "byteOffset": 11009376,
      "componentType": 5126,
      "count": 65532,
      "max": [
        6.460566997528076,
        1.1447110176086426,
        -5.345156192779541
      ],
      "min": [
        0.6246770024299622,
        -2.5263020992279053,
        -10.635213851928711
      ],
      "type": "VEC3"
    },
    {
      "bufferView": 2,
      "byteOffset": 11795760,
      "componentType": 5126,
      "count": 65532,
      "max": [
        0.999539315700531,
        0.9999999403953552,
        0.9999634623527527
      ],
      "min": [
        -0.9997376203536987,
        -0.9999978542327881,
        -0.9999818801879883
      ],
      "type": "VEC3"
    },
    {
      "bufferView": 1,
      "byteOffset": 3669792,
      "componentType": 5126,
      "count": 65532,
      "max": [
        0.9998520016670227,
        0.9986129999160767
      ],
      "min": [
        0.008779999800026417,
        0.002604000037536025
      ],
      "type": "VEC2"
    },
    {
      "bufferView": 0,
      "byteOffset": 9897852,
      "componentType": 5125,
      "count": 333033,
      "type": "SCALAR"
    },
    {
      "bufferView": 2,
      "byteOffset": 12582144,
      "componentType": 5126,
      "count": 42871,
      "max": [
        6.208725929260254,
        1.1468019485473633,
        -5.508008003234863
      ],
      "min": [
        1.5576200485229492,
        -2.400120973587036,
        -11.396162033081055
      ],
      "type": "VEC3"
    },
    {
      "bufferView": 2,
      "byteOffset": 13096596,
      "componentType": 5126,
      "count": 42871,
      "max": [
        0.9999880790710449,
        0.9999918341636658,
        0.9999634623527527
      ],
      "min": [
        -0.9999658465385437,
        -0.9999995231628418,
        -0.9990600943565369
      ],
      "type": "VEC3"
    },
    {
      "bufferView": 1,
      "byteOffset": 4194048,
      "componentType": 5126,
      "count": 42871,
      "max": [
        0.9997249841690063,
        0.997527003288269
      ],
      "min": [
        0.0015170000260695815,
        0.00912499986588955
      ],
      "type": "VEC2"
    },
    {
      "bufferView": 0,
      "byteOffset": 11229984,
      "componentType": 5125,
      "count": 192615,
      "type": "SCALAR"
    }
  ],
  "asset": {
    "extras": {
      "author": "Taylor (https://sketchfab.com/thoulihan)",
      "license": "CC-BY-4.0 (http://creativecommons.org/licenses/by/4.0/)",
      "source": "https://sketchfab.com/3d-models/the-fountain-of-the-sea-horses-966b78a6e4e744d8ac4dc3be20c2de69",
      "title": "The Fountain of the Sea Horses"
    },
    "generator": "Sketchfab-12.68.0",
    "version": "2.0"
  },
  "bufferViews": [
    {
      "buffer": 0,
      "byteLength": 12000444,
      "name": "floatBufferViews",
      "target": 34963
    },
    {
      "buffer": 0,
      "byteLength": 4537016,
      "byteOffset": 12000444,
      "byteStride": 8,
      "name": "floatBufferViews",
      "target": 34962
    },
    {
      "buffer": 0,
      "byteLength": 13611048,
      "byteOffset": 16537460,
      "byteStride": 12,
      "name": "floatBufferViews",
      "target": 34962
    }
  ],
  "buffers": [
    {
      "byteLength": 30148508,
      "uri": "scene.bin"
    }
  ],
  "images": [
    {
      "uri": "textures/Seahorses_1mil_meters_baseColor.jpeg"
    }
  ],
  "materials": [
    {
      "doubleSided": true,
      "name": "Seahorses_1mil_meters",
      "pbrMetallicRoughness": {
        "baseColorTexture": {
          "index": 0
        },
        "metallicFactor": 0.0
      }
    }
  ],
  "meshes": [
    {
      "name": "Object_0",
      "primitives": [
        {
          "attributes": {
            "NORMAL": 1,
            "POSITION": 0,
            "TEXCOORD_0": 2
          },
          "indices": 3,
          "material": 0,
          "mode": 4
        }
      ]
    },
    {
      "name": "Object_1",
      "primitives": [
        {
          "attributes": {
            "NORMAL": 5,
            "POSITION": 4,
            "TEXCOORD_0": 6
          },
          "indices": 7,
          "material": 0,
          "mode": 4
        }
      ]
    },
    {
      "name": "Object_2",
      "primitives": [
        {
          "attributes": {
            "NORMAL": 9,
            "POSITION": 8,
            "TEXCOORD_0": 10
          },
          "indices": 11,
          "material": 0,
          "mode": 4
        }
      ]
    },
    {
      "name": "Object_3",
      "primitives": [
        {
          "attributes": {
            "NORMAL": 13,
            "POSITION": 12,
            "TEXCOORD_0": 14
          },
          "indices": 15,
          "material": 0,
          "mode": 4
        }
      ]
    },
    {
      "name": "Object_4",
      "primitives": [
        {
          "attributes": {
            "NORMAL": 17,
            "POSITION": 16,
            "TEXCOORD_0": 18
          },
          "indices": 19,
          "material": 0,
          "mode": 4
        }
      ]
    },
    {
      "name": "Object_5",
      "primitives": [
        {
          "attributes": {
            "NORMAL": 21,
            "POSITION": 20,
            "TEXCOORD_0": 22
          },
          "indices": 23,
          "material": 0,
          "mode": 4
        }
      ]
    },
    {
      "name": "Object_6",
      "primitives": [
        {
          "attributes": {
            "NORMAL": 25,
            "POSITION": 24,
            "TEXCOORD_0": 26
          },
          "indices": 27,
          "material": 0,
          "mode": 4
        }
      ]
    },
    {
      "name": "Object_7",
      "primitives": [
        {
          "attributes": {
            "NORMAL": 29,
            "POSITION": 28,
            "TEXCOORD_0": 30
          },
          "indices": 31,
          "material": 0,
          "mode": 4
        }
      ]
    },
    {
      "name": "Object_8",
      "primitives": [
        {
          "attributes": {
            "NORMAL": 33,
            "POSITION": 32,
            "TEXCOORD_0": 34
          },
          "indices": 35,
          "material": 0,
          "mode": 4
        }
      ]
    }
  ],
  "nodes": [
    {
      "children": [
        1
      ],
      "matrix": [
        0.9996308088302612,
        -0.026883745566010475,
        -0.003934905398637062,
        0.0,
        -0.026796633377671242,
        -0.9994259476661682,
        0.02073024958372094,
        0.0,
        -0.00448995316401124,
        -0.020617153495549934,
        -0.9997773766517639,
        0.0,
        -0.05295262858271599,
        -8.56590938568115,
        -7.027863025665285,
        1.0
      ],
      "name": "Sketchfab_model"
    },
    {
      "children": [
        2,
        3,
        4,
        5,
        6,
        7,
        8,
        9,
        10
      ],
      "name": "Seahorses_1mil_meters.obj.cleaner.materialmerger.gles"
    },
    {
      "mesh": 0,
      "name": "Object_2"
    },
    {
      "mesh": 1,
      "name": "Object_3"
    },
    {
      "mesh": 2,
      "name": "Object_4"
    },
    {
      "mesh": 3,
      "name": "Object_5"
    },
    {
      "mesh": 4,
      "name": "Object_6"
    },
    {
      "mesh": 5,
      "name": "Object_7"
    },
    {
      "mesh": 6,
      "name": "Object_8"
    },
    {
      "mesh": 7,
      "name": "Object_9"
    },
    {
      "mesh": 8,
      "name": "Object_10"
    }
  ],
  "samplers": [
    {
      "magFilter": 9729,
      "minFilter": 9987,
      "wrapS": 10497,
      "wrapT": 10497
    }
  ],
  "scene": 0,
  "scenes": [
    {
      "name": "Sketchfab_Scene",
      "nodes": [
        0
      ]
    }
  ],
  "textures": [
    {
      "sampler": 0,
      "source": 0
    }
  ]
}
