{
  "accessors": [
    {
      "bufferView": 2,
      "componentType": 5126,
      "count": 65532,
      "max": [
        0.11476545035839081,
        0.1401108354330063,
        0.06354495882987976
      ],
      "min": [
        -0.11749529093503952,
        -0.1420476883649826,
        -0.06258340179920197
      ],
      "type": "VEC3"
    },
    {
      "bufferView": 2,
      "byteOffset": 786384,
      "componentType": 5126,
      "count": 65532,
      "max": [
        0.9999919533729553,
        0.9998466968536377,
        0.99995356798172
      ],
      "min": [
        -0.9999265670776367,
        -0.9998466968536377,
        -0.9999890327453613
      ],
      "type": "VEC3"
    },
    {
      "bufferView": 1,
      "componentType": 5126,
      "count": 65532,
      "max": [
        0.9948959946632385,
        0.9999840259552002
      ],
      "min": [
        0.000314951001200825,
        6.079673767089844e-06
      ],
      "type": "VEC2"
    },
    {
      "bufferView": 0,
      "componentType": 5125,
      "count": 372717,
      "type": "SCALAR"
    },
    {
      "bufferView": 2,
      "byteOffset": 1572768,
      "componentType": 5126,
      "count": 13831,
      "max": [
        0.11476545035839081,
        0.12230429798364639,
        0.062214288860559464
      ],
      "min": [
        -0.11749529093503952,
        -0.13437800109386444,
        -0.06258340179920197
      ],
      "type": "VEC3"
    },
    {
      "bufferView": 2,
      "byteOffset": 1738740,
      "componentType": 5126,
      "count": 13831,
      "max": [
        0.992128312587738,
        0.9965741038322449,
        0.9999890327453613
      ],
      "min": [
        -0.9999919533729553,
        -0.9995675683021545,
        -0.5667056441307068
      ],
      "type": "VEC3"
    },
    {
      "bufferView": 1,
      "byteOffset": 524256,
      "componentType": 5126,
      "count": 13831,
      "max": [
        0.9932420253753662,
        0.9999650120735168
      ],
      "min": [
        0.000314951001200825,
        6.973743438720703e-06
      ],
      "type": "VEC2"
    },
    {
      "bufferView": 0,
      "byteOffset": 1490868,
      "componentType": 5125,
      "count": 76401,
      "type": "SCALAR"
    }
  ],
  "asset": {
    "extras": {
      "author": "samhh (https://sketchfab.com/samhh)",
      "license": "CC-BY-4.0 (http://creativecommons.org/licenses/by/4.0/)",
      "source": "https://sketchfab.com/3d-models/philadelphia-phillies-baseball-hat-13fe91151ca04f1aa27e1ea8b3877fb1",
      "title": "Philadelphia Phillies Baseball Hat"
    },
    "generator": "Sketchfab-12.66.0",
    "version": "2.0"
  },
  "bufferViews": [
    {
      "buffer": 0,
      "byteLength": 1796472,
      "name": "floatBufferViews",
      "target": 34963
    },
    {
      "buffer": 0,
      "byteLength": 634904,
      "byteOffset": 1796472,
      "byteStride": 8,
      "name": "floatBufferViews",
      "target": 34962
    },
    {
      "buffer": 0,
      "byteLength": 1904712,
      "byteOffset": 2431376,
      "byteStride": 12,
      "name": "floatBufferViews",
      "target": 34962
    }
  ],
  "buffers": [
    {
      "byteLength": 4336088,
      "uri": "scene.bin"
    }
  ],
  "images": [
    {
      "uri": "textures/material_1_baseColor.jpeg"
    }
  ],
  "materials": [
    {
      "name": "material_1",
      "pbrMetallicRoughness": {
        "baseColorTexture": {
          "index": 0
        },
        "metallicFactor": 0.0
      }
    }
  ],
  "meshes": [
    {
      "name": "export",
      "primitives": [
        {
          "attributes": {
            "NORMAL": 1,
            "POSITION": 0,
            "TEXCOORD_0": 2
          },
          "indices": 3,
          "material": 0,
          "mode": 4
        }
      ]
    },
    {
      "name": "export",
      "primitives": [
        {
          "attributes": {
            "NORMAL": 5,
            "POSITION": 4,
            "TEXCOORD_0": 6
          },
          "indices": 7,
          "material": 0,
          "mode": 4
        }
      ]
    }
  ],
  "nodes": [
    {
      "children": [
        1
      ],
      "matrix": [
        1.0,
        0.0,
        0.0,
        0.0,
        0.0,
        2.220446049250313e-16,
        -1.0,
        0.0,
        0.0,
        1.0,
        2.220446049250313e-16,
        0.0,
        0.0,
        0.0,
        0.0,
        1.0
      ],
      "name": "Sketchfab_model"
    },
    {
      "children": [
        2
      ],
      "matrix": [
        0.009999999776482582,
        0.0,
        0.0,
        0.0,
        0.0,
        2.2204459996194763e-18,
        0.009999999776482582,
        0.0,
        0.0,
        -0.009999999776482582,
        2.2204459996194763e-18,
        0.0,
        0.0,
        0.0,
        0.0,
        1.0
      ],
      "name": "USDRoot"
    },
    {
      "children": [
        3
      ],
      "name": "hatcrop___1636331275545"
    },
    {
      "children": [
        4
      ],
      "matrix": [
        100.0,
        0.0,
        0.0,
        0.0,
        0.0,
        100.0,
        0.0,
        0.0,
        0.0,
        0.0,
        100.0,
        0.0,
        0.0,
        0.0,
        0.0,
        1.0
      ],
      "name": "Meshes"
    },
    {
      "children": [
        5,
        6
      ],
      "matrix": [
        1.0,
        0.0,
        0.0,
        0.0,
        0.0,
        -1.3435885648505064e-07,
        0.9999999403953552,
        0.0,
        0.0,
        -0.9999999403953552,
        -1.3435885648505064e-07,
        0.0,
        0.0,
        0.06622658669948578,
        0.0,
        1.0
      ],
      "name": "export"
    },
    {
      "mesh": 0,
      "name": "export"
    },
    {
      "mesh": 1,
      "name": "export"
    }
  ],
  "samplers": [
    {
      "magFilter": 9729,
      "minFilter": 9987,
      "wrapS": 10497,
      "wrapT": 10497
    }
  ],
  "scene": 0,
  "scenes": [
    {
      "name": "Sketchfab_Scene",
      "nodes": [
        0
      ]
    }
  ],
  "textures": [
    {
      "sampler": 0,
      "source": 0
    }
  ]
}
